<svg width="59" height="76" viewBox="0 0 59 76" fill="none" xmlns="http://www.w3.org/2000/svg">
<path d="M47.5987 37.5448V33.7064C47.5987 31.6705 46.7899 29.7179 45.3502 28.2782C43.9106 26.8386 41.958 26.0298 39.922 26.0298H24.5687C22.5328 26.0298 20.5802 26.8386 19.1405 28.2782C17.7009 29.7179 16.8921 31.6705 16.8921 33.7064V37.5448" stroke="#FFA200" stroke-width="4.14729" stroke-linecap="round" stroke-linejoin="round"/>
<path d="M32.246 18.3534C36.4857 18.3534 39.9226 14.9165 39.9226 10.6768C39.9226 6.43707 36.4857 3.00012 32.246 3.00012C28.0063 3.00012 24.5693 6.43707 24.5693 10.6768C24.5693 14.9165 28.0063 18.3534 32.246 18.3534Z" stroke="#FFA200" stroke-width="4.14729" stroke-linecap="round" stroke-linejoin="round"/>
<path d="M9.7027 58.6975L7.66926 56.8674C7.1017 56.3566 6.24254 56.3485 5.66552 56.8486L2.27734 59.785C1.59584 60.3756 1.57882 61.4275 2.24085 62.0398L15.1028 73.9371C15.6848 74.4755 16.5836 74.4735 17.1632 73.9325L20.6036 70.7215C21.2526 70.1157 21.2433 69.084 20.5834 68.4901L18.4054 66.5299M9.7027 58.6975L15.3534 53.9803C17.3253 52.3343 19.8124 51.4326 22.381 51.4326H23.4749C25.3335 51.4326 27.1333 52.0842 28.5611 53.274V53.274C28.6002 53.3066 28.6495 53.3245 28.7004 53.3245H38.4595C40.3402 53.3245 41.8649 54.8491 41.8649 56.7299V56.7299C41.8649 58.6106 40.3402 60.1353 38.4595 60.1353H27.1081M9.7027 58.6975L18.4054 66.5299M40.7297 54.4596L42.0086 54.1399C42.164 54.101 42.3123 54.0377 42.4479 53.9524L51.7953 48.067C52.2118 47.8048 52.7297 47.7614 53.1839 47.9506L55.6289 48.9694C56.4592 49.3154 57 50.1266 57 51.026V51.026C57 51.2886 56.9073 51.5427 56.7381 51.7436L51.0521 58.4958C50.9815 58.5795 50.9021 58.6554 50.8152 58.722L40.0273 66.9927C39.7476 67.2072 39.4019 67.3173 39.0497 67.304L18.4054 66.5299" stroke="#FFA200" stroke-width="3.02703"/>
</svg>
