<svg width="181" height="181" viewBox="0 0 181 181" fill="none" xmlns="http://www.w3.org/2000/svg">
<path fill-rule="evenodd" clip-rule="evenodd" d="M107.348 42.1916L90.1744 30.8633L90.1716 30.8675L73.1638 42.1974H73.1578V66.3893L61.2732 58.4723L52.1206 52.0484V103.448L61.4261 109.719V69.7554L73.1578 77.5706V117.59L83.0702 124.063V84.1739L97.4286 93.7388V124.064L107.341 117.49V89.1686L107.339 89.1674L107.343 89.162L98.6201 83.3513L119.076 69.7243V109.702L128.382 103.506V52.0484L119.076 58.5429L107.341 66.3606V42.2026L107.348 42.1916ZM83.0702 72.9927L90.2278 77.7606L97.4286 72.9638V46.7959L90.2399 42.054L83.0702 46.9016V72.9927Z" fill="#FFA200"/>
<path d="M107.349 66.3353L117.464 59.5879V70.8073L107.349 77.5433V66.3353Z" fill="url(#paint0_linear_1_9678)"/>
<path opacity="0.2" d="M107.349 65.3731L121.823 55.7178V71.7726L107.349 81.4118V65.3731Z" fill="url(#paint1_linear_1_9678)"/>
<path opacity="0.2" d="M107.349 65.3731L121.823 55.7178V71.7726L107.349 81.4118V65.3731Z" fill="url(#paint2_linear_1_9678)"/>
<path opacity="0.2" d="M107.349 65.3731L121.823 55.7178V71.7726L107.349 81.4118V65.3731Z" fill="url(#paint3_linear_1_9678)"/>
<path opacity="0.2" d="M107.349 65.3731L121.823 55.7178V71.7726L107.349 81.4118V65.3731Z" fill="url(#paint4_linear_1_9678)"/>
<path opacity="0.2" d="M107.349 65.3731L121.823 55.7178V71.7726L107.349 81.4118V65.3731Z" fill="url(#paint5_linear_1_9678)"/>
<path opacity="0.2" d="M107.349 65.3731L121.823 55.7178V71.7726L107.349 81.4118V65.3731Z" fill="url(#paint6_linear_1_9678)"/>
<path opacity="0.2" d="M107.349 65.3731L121.823 55.7178V71.7726L107.349 81.4118V65.3731Z" fill="url(#paint7_linear_1_9678)"/>
<path opacity="0.2" d="M107.349 65.3731L121.823 55.7178V71.7726L107.349 81.4118V65.3731Z" fill="url(#paint8_linear_1_9678)"/>
<path opacity="0.2" d="M107.349 65.3731L121.823 55.7178V71.7726L107.349 81.4118V65.3731Z" fill="url(#paint9_linear_1_9678)"/>
<path d="M73.1636 66.3649L63.0181 59.6299V70.8154L73.1636 77.5923V66.3649Z" fill="url(#paint10_linear_1_9678)"/>
<path opacity="0.2" d="M73.1636 65.4893L59.0649 56.1299V71.6736L73.1636 81.0912V65.4893Z" fill="url(#paint11_linear_1_9678)"/>
<path opacity="0.2" d="M73.1636 65.4893L59.0649 56.1299V71.6736L73.1636 81.0912V65.4893Z" fill="url(#paint12_linear_1_9678)"/>
<path opacity="0.2" d="M73.1636 65.4893L59.0649 56.1299V71.6736L73.1636 81.0912V65.4893Z" fill="url(#paint13_linear_1_9678)"/>
<path opacity="0.2" d="M73.1636 65.4893L59.0649 56.1299V71.6736L73.1636 81.0912V65.4893Z" fill="url(#paint14_linear_1_9678)"/>
<path opacity="0.2" d="M73.1636 65.4893L59.0649 56.1299V71.6736L73.1636 81.0912V65.4893Z" fill="url(#paint15_linear_1_9678)"/>
<path opacity="0.2" d="M73.1636 65.4893L59.0649 56.1299V71.6736L73.1636 81.0912V65.4893Z" fill="url(#paint16_linear_1_9678)"/>
<path opacity="0.2" d="M73.1636 65.4893L59.0649 56.1299V71.6736L73.1636 81.0912V65.4893Z" fill="url(#paint17_linear_1_9678)"/>
<path opacity="0.2" d="M73.1636 65.4893L59.0649 56.1299V71.6736L73.1636 81.0912V65.4893Z" fill="url(#paint18_linear_1_9678)"/>
<path opacity="0.2" d="M73.1636 65.4893L59.0649 56.1299V71.6736L73.1636 81.0912V65.4893Z" fill="url(#paint19_linear_1_9678)"/>
<path d="M147.074 150.175C146.468 150.175 145.887 150.136 145.333 150.057C144.793 149.978 144.338 149.872 143.968 149.74V148.316C144.417 148.474 144.885 148.593 145.373 148.672C145.874 148.751 146.369 148.79 146.857 148.79C147.688 148.79 148.281 148.705 148.637 148.533C148.993 148.349 149.171 148.012 149.171 147.524C149.171 147.168 149.073 146.898 148.875 146.713C148.69 146.529 148.4 146.364 148.004 146.219C147.622 146.074 147.127 145.902 146.52 145.704C145.98 145.52 145.498 145.328 145.076 145.131C144.654 144.933 144.325 144.669 144.087 144.339C143.85 143.996 143.731 143.541 143.731 142.974C143.731 142.143 144.021 141.51 144.602 141.075C145.182 140.627 146.118 140.402 147.411 140.402C147.912 140.402 148.393 140.442 148.855 140.521C149.316 140.587 149.719 140.673 150.062 140.778V142.203C149.231 141.926 148.433 141.787 147.668 141.787C146.85 141.787 146.257 141.873 145.887 142.044C145.531 142.203 145.353 142.506 145.353 142.954C145.353 143.258 145.432 143.502 145.591 143.686C145.762 143.858 146.019 144.01 146.362 144.141C146.718 144.26 147.173 144.412 147.727 144.596C148.453 144.821 149.04 145.051 149.488 145.289C149.936 145.526 150.266 145.816 150.477 146.159C150.688 146.502 150.794 146.951 150.794 147.505C150.794 148.428 150.471 149.107 149.824 149.542C149.178 149.964 148.261 150.175 147.074 150.175Z" fill="#FFA200"/>
<path d="M137.38 149.978V140.6H138.844L138.963 141.787C139.425 141.484 139.965 141.207 140.585 140.956C141.218 140.706 141.838 140.521 142.445 140.402V141.669C142.075 141.748 141.673 141.86 141.238 142.005C140.803 142.137 140.387 142.288 139.992 142.46C139.596 142.631 139.266 142.809 139.003 142.994V149.978H137.38Z" fill="#FFA200"/>
<path d="M130.316 150.175C128.68 150.175 127.487 149.76 126.735 148.929C125.996 148.085 125.627 146.872 125.627 145.289C125.627 143.719 126.003 142.513 126.755 141.669C127.506 140.824 128.693 140.402 130.316 140.402C131.938 140.402 133.125 140.824 133.877 141.669C134.628 142.513 135.004 143.719 135.004 145.289C135.004 146.872 134.635 148.085 133.896 148.929C133.158 149.76 131.964 150.175 130.316 150.175ZM130.316 148.79C131.437 148.79 132.228 148.514 132.69 147.96C133.151 147.392 133.382 146.502 133.382 145.289C133.382 144.076 133.145 143.192 132.67 142.638C132.208 142.071 131.424 141.787 130.316 141.787C129.208 141.787 128.416 142.071 127.942 142.638C127.48 143.192 127.249 144.076 127.249 145.289C127.249 146.502 127.48 147.392 127.942 147.96C128.403 148.514 129.195 148.79 130.316 148.79Z" fill="#FFA200"/>
<path d="M122.473 150.175C121.55 150.175 120.851 149.93 120.376 149.443C119.915 148.941 119.684 148.249 119.684 147.365V141.885H118.259V140.599H119.684V138.285L121.306 137.79V140.599H123.898L123.799 141.885H121.306V147.286C121.306 147.853 121.431 148.262 121.682 148.513C121.946 148.75 122.394 148.869 123.027 148.869C123.37 148.869 123.746 148.803 124.155 148.671V149.898C123.667 150.082 123.106 150.175 122.473 150.175Z" fill="#FFA200"/>
<path d="M111.984 150.175C110.349 150.175 109.155 149.76 108.403 148.929C107.665 148.085 107.295 146.872 107.295 145.289C107.295 143.719 107.671 142.513 108.423 141.669C109.175 140.824 110.362 140.402 111.984 140.402C113.606 140.402 114.793 140.824 115.545 141.669C116.297 142.513 116.673 143.719 116.673 145.289C116.673 146.872 116.303 148.085 115.565 148.929C114.826 149.76 113.633 150.175 111.984 150.175ZM111.984 148.79C113.105 148.79 113.896 148.514 114.358 147.96C114.82 147.392 115.05 146.502 115.05 145.289C115.05 144.076 114.813 143.192 114.338 142.638C113.877 142.071 113.092 141.787 111.984 141.787C110.876 141.787 110.085 142.071 109.61 142.638C109.148 143.192 108.918 144.076 108.918 145.289C108.918 146.502 109.148 147.392 109.61 147.96C110.072 148.514 110.863 148.79 111.984 148.79Z" fill="#FFA200"/>
<path d="M92.8125 149.98V137.239H94.5534L98.8663 146.082L103.179 137.239H104.92V149.98H103.317V139.771L99.4203 147.764H98.3321L94.415 139.771V149.98H92.8125Z" fill="#FFA200"/>
<path d="M81.4146 149.978V140.6H82.8785L82.9972 141.787C83.4589 141.484 83.9995 141.207 84.6194 140.956C85.2526 140.706 85.8724 140.521 86.4792 140.402V141.669C86.1098 141.748 85.7076 141.86 85.2723 142.005C84.837 142.137 84.4217 142.288 84.026 142.46C83.6304 142.631 83.3006 142.809 83.0368 142.994V149.978H81.4146Z" fill="#FFA200"/>
<path d="M75.475 150.175C73.8 150.175 72.5469 149.773 71.7162 148.969C70.8853 148.164 70.4697 146.924 70.4697 145.249C70.4697 143.746 70.826 142.565 71.538 141.708C72.2634 140.838 73.4044 140.402 74.9607 140.402C75.8838 140.402 76.6422 140.574 77.2356 140.917C77.8423 141.246 78.2908 141.708 78.5809 142.302C78.8843 142.882 79.0361 143.541 79.0361 144.28V146.041H72.092C72.1447 146.753 72.2965 147.313 72.5469 147.722C72.8108 148.131 73.1999 148.428 73.7142 148.612C74.2419 148.784 74.9342 148.87 75.7914 148.87C76.7543 148.87 77.638 148.705 78.4425 148.375V149.641C78.0337 149.813 77.5719 149.945 77.0576 150.037C76.5564 150.129 76.029 150.175 75.475 150.175ZM72.092 144.873H77.5918V144.102C77.5918 143.337 77.3873 142.75 76.9786 142.341C76.5829 141.919 75.9234 141.708 75.0001 141.708C73.8791 141.708 73.1142 141.972 72.7052 142.499C72.2965 143.027 72.092 143.818 72.092 144.873Z" fill="#FFA200"/>
<path d="M61.9771 149.977V136.643H63.5993V144.734L67.9913 140.599H69.8706L66.0327 144.319L70.0882 149.977H68.3869L65.0039 145.189L63.5993 146.515V149.977H61.9771Z" fill="#FFA200"/>
<path d="M57.2729 150.175C55.6375 150.175 54.4241 149.753 53.6328 148.909C52.8415 148.052 52.4458 146.845 52.4458 145.289C52.4458 143.64 52.8942 142.414 53.7911 141.609C54.6879 140.805 55.8946 140.402 57.4115 140.402C58.0313 140.402 58.5456 140.449 58.9544 140.541C59.3634 140.62 59.7591 140.752 60.1414 140.937V142.223C59.4293 141.88 58.6181 141.708 57.7081 141.708C56.5475 141.708 55.6506 141.985 55.0176 142.539C54.3844 143.08 54.068 143.996 54.068 145.289C54.068 146.529 54.345 147.439 54.899 148.019C55.4529 148.586 56.3695 148.87 57.6488 148.87C58.5588 148.87 59.3963 148.698 60.1613 148.355V149.661C59.7525 149.832 59.3107 149.958 58.8358 150.037C58.3742 150.129 57.8533 150.175 57.2729 150.175Z" fill="#FFA200"/>
<path d="M45.7741 150.175C44.1388 150.175 42.945 149.76 42.1934 148.929C41.4548 148.085 41.0854 146.872 41.0854 145.289C41.0854 143.719 41.4614 142.513 42.2131 141.669C42.9649 140.824 44.1519 140.402 45.7741 140.402C47.3964 140.402 48.5833 140.824 49.3352 141.669C50.0869 142.513 50.4628 143.719 50.4628 145.289C50.4628 146.872 50.0934 148.085 49.3549 148.929C48.6164 149.76 47.4226 150.175 45.7741 150.175ZM45.7741 148.79C46.8952 148.79 47.6865 148.514 48.148 147.96C48.6098 147.392 48.8406 146.502 48.8406 145.289C48.8406 144.076 48.6032 143.192 48.1283 142.638C47.6668 142.071 46.882 141.787 45.7741 141.787C44.6662 141.787 43.8749 142.071 43.4 142.638C42.9385 143.192 42.7077 144.076 42.7077 145.289C42.7077 146.502 42.9385 147.392 43.4 147.96C43.8618 148.514 44.6531 148.79 45.7741 148.79Z" fill="#FFA200"/>
<path d="M29.8682 149.98V137.239H35.4668C36.8386 137.239 37.8344 137.595 38.4542 138.308C39.0872 139.02 39.4038 139.983 39.4038 141.196C39.4038 142.132 39.173 142.91 38.7113 143.53C38.2629 144.15 37.5902 144.566 36.6934 144.777C36.9572 144.935 37.155 145.12 37.287 145.33C37.4319 145.528 37.5771 145.799 37.7222 146.142L39.3839 149.98H37.7222L36.1 146.28C35.9284 145.884 35.7175 145.601 35.4668 145.429C35.2295 145.258 34.8008 145.172 34.1809 145.172H31.4904V149.98H29.8682ZM31.4904 143.906H35.0118C35.869 143.906 36.5417 143.695 37.0297 143.273C37.5309 142.838 37.7816 142.145 37.7816 141.196C37.7816 139.415 36.9307 138.525 35.2295 138.525H31.4904V143.906Z" fill="#FFA200"/>
<defs>
<linearGradient id="paint0_linear_1_9678" x1="107.527" y1="70.6235" x2="117.443" y2="70.6235" gradientUnits="userSpaceOnUse">
<stop stop-opacity="0.4"/>
<stop offset="0.9999" stop-opacity="0.01"/>
<stop offset="1" stop-color="white" stop-opacity="0"/>
</linearGradient>
<linearGradient id="paint1_linear_1_9678" x1="107.603" y1="71.5096" x2="121.793" y2="71.5096" gradientUnits="userSpaceOnUse">
<stop stop-opacity="0.4"/>
<stop offset="0.9999" stop-opacity="0.01"/>
<stop offset="1" stop-color="white" stop-opacity="0"/>
</linearGradient>
<linearGradient id="paint2_linear_1_9678" x1="107.603" y1="71.5096" x2="121.793" y2="71.5096" gradientUnits="userSpaceOnUse">
<stop stop-opacity="0.4"/>
<stop offset="0.9999" stop-opacity="0.01"/>
<stop offset="1" stop-color="white" stop-opacity="0"/>
</linearGradient>
<linearGradient id="paint3_linear_1_9678" x1="107.603" y1="71.5096" x2="121.793" y2="71.5096" gradientUnits="userSpaceOnUse">
<stop stop-opacity="0.4"/>
<stop offset="0.9999" stop-opacity="0.01"/>
<stop offset="1" stop-color="white" stop-opacity="0"/>
</linearGradient>
<linearGradient id="paint4_linear_1_9678" x1="107.603" y1="71.5096" x2="121.793" y2="71.5096" gradientUnits="userSpaceOnUse">
<stop stop-opacity="0.4"/>
<stop offset="0.9999" stop-opacity="0.01"/>
<stop offset="1" stop-color="white" stop-opacity="0"/>
</linearGradient>
<linearGradient id="paint5_linear_1_9678" x1="107.603" y1="71.5096" x2="121.793" y2="71.5096" gradientUnits="userSpaceOnUse">
<stop stop-opacity="0.4"/>
<stop offset="0.9999" stop-opacity="0.01"/>
<stop offset="1" stop-color="white" stop-opacity="0"/>
</linearGradient>
<linearGradient id="paint6_linear_1_9678" x1="107.603" y1="71.5096" x2="121.793" y2="71.5096" gradientUnits="userSpaceOnUse">
<stop stop-opacity="0.4"/>
<stop offset="0.9999" stop-opacity="0.01"/>
<stop offset="1" stop-color="white" stop-opacity="0"/>
</linearGradient>
<linearGradient id="paint7_linear_1_9678" x1="107.603" y1="71.5096" x2="121.793" y2="71.5096" gradientUnits="userSpaceOnUse">
<stop stop-opacity="0.4"/>
<stop offset="0.9999" stop-opacity="0.01"/>
<stop offset="1" stop-color="white" stop-opacity="0"/>
</linearGradient>
<linearGradient id="paint8_linear_1_9678" x1="107.603" y1="71.5096" x2="121.793" y2="71.5096" gradientUnits="userSpaceOnUse">
<stop stop-opacity="0.4"/>
<stop offset="0.9999" stop-opacity="0.01"/>
<stop offset="1" stop-color="white" stop-opacity="0"/>
</linearGradient>
<linearGradient id="paint9_linear_1_9678" x1="107.603" y1="71.5096" x2="121.793" y2="71.5096" gradientUnits="userSpaceOnUse">
<stop stop-opacity="0.4"/>
<stop offset="0.9999" stop-opacity="0.01"/>
<stop offset="1" stop-color="white" stop-opacity="0"/>
</linearGradient>
<linearGradient id="paint10_linear_1_9678" x1="73.1013" y1="70.5128" x2="63.1369" y2="70.5128" gradientUnits="userSpaceOnUse">
<stop stop-opacity="0.4"/>
<stop offset="1" stop-opacity="0"/>
</linearGradient>
<linearGradient id="paint11_linear_1_9678" x1="73.077" y1="71.253" x2="59.23" y2="71.253" gradientUnits="userSpaceOnUse">
<stop stop-opacity="0.4"/>
<stop offset="1" stop-opacity="0"/>
</linearGradient>
<linearGradient id="paint12_linear_1_9678" x1="73.077" y1="71.253" x2="59.23" y2="71.253" gradientUnits="userSpaceOnUse">
<stop stop-opacity="0.4"/>
<stop offset="1" stop-opacity="0"/>
</linearGradient>
<linearGradient id="paint13_linear_1_9678" x1="73.077" y1="71.253" x2="59.23" y2="71.253" gradientUnits="userSpaceOnUse">
<stop stop-opacity="0.4"/>
<stop offset="1" stop-opacity="0"/>
</linearGradient>
<linearGradient id="paint14_linear_1_9678" x1="73.077" y1="71.253" x2="59.23" y2="71.253" gradientUnits="userSpaceOnUse">
<stop stop-opacity="0.4"/>
<stop offset="1" stop-opacity="0"/>
</linearGradient>
<linearGradient id="paint15_linear_1_9678" x1="73.077" y1="71.253" x2="59.23" y2="71.253" gradientUnits="userSpaceOnUse">
<stop stop-opacity="0.4"/>
<stop offset="1" stop-opacity="0"/>
</linearGradient>
<linearGradient id="paint16_linear_1_9678" x1="73.077" y1="71.253" x2="59.23" y2="71.253" gradientUnits="userSpaceOnUse">
<stop stop-opacity="0.4"/>
<stop offset="1" stop-opacity="0"/>
</linearGradient>
<linearGradient id="paint17_linear_1_9678" x1="73.077" y1="71.253" x2="59.23" y2="71.253" gradientUnits="userSpaceOnUse">
<stop stop-opacity="0.4"/>
<stop offset="1" stop-opacity="0"/>
</linearGradient>
<linearGradient id="paint18_linear_1_9678" x1="73.077" y1="71.253" x2="59.23" y2="71.253" gradientUnits="userSpaceOnUse">
<stop stop-opacity="0.4"/>
<stop offset="1" stop-opacity="0"/>
</linearGradient>
<linearGradient id="paint19_linear_1_9678" x1="73.077" y1="71.253" x2="59.23" y2="71.253" gradientUnits="userSpaceOnUse">
<stop stop-opacity="0.4"/>
<stop offset="1" stop-opacity="0"/>
</linearGradient>
</defs>
</svg>
