<svg width="62" height="72" viewBox="0 0 62 72" fill="none" xmlns="http://www.w3.org/2000/svg">
<rect x="15.5" y="2" width="44" height="58" rx="7" stroke="#FFA200" stroke-width="4"/>
<rect x="22.5" y="11" width="19" height="5" rx="2" fill="#FFA200"/>
<rect x="22.5" y="21" width="29" height="5" rx="2" fill="#FFA200"/>
<rect x="22.5" y="31" width="29" height="5" rx="2" fill="#FFA200"/>
<rect x="22.5" y="41" width="25" height="5" rx="2" fill="#FFA200"/>
<circle cx="45.5" cy="60" r="7.5" fill="#FFA200" stroke="#040405" stroke-width="3"/>
<path d="M43.9839 60.0002L47.7427 61.3683L43.9804 71.7049L42.6791 69.8769L40.2217 70.3369L43.9839 60.0002Z" fill="#FFA200"/>
<path d="M43.2217 61.3682L46.9804 60.0001L50.7427 70.3367L48.3206 69.8829L46.9839 71.7048L43.2217 61.3682Z" fill="#FFA200"/>
<path d="M3.5 9H7.5V50.6722C7.5 51.5423 7.27292 52.3974 6.84121 53.1529L5.67365 55.1961C5.59687 55.3305 5.40313 55.3305 5.32635 55.1961L4.15879 53.1529C3.72708 52.3974 3.5 51.5423 3.5 50.6722V9Z" fill="#FFA200"/>
<rect x="3.5" y="5" width="4" height="2" fill="#FFA200"/>
<path d="M1 10C1.55228 10 2 10.4477 2 11L2 29C2 29.5523 1.55228 30 0.999999 30C0.447714 30 -8.54657e-07 29.5523 -8.30516e-07 29L-4.37114e-08 11C-1.95703e-08 10.4477 0.447715 10 1 10Z" fill="#FFA200"/>
</svg>
